<?xml version="1.0" standalone="no"?>
<!DOCTYPE svg PUBLIC "-//W3C//DTD SVG 20010904//EN"
 "http://www.w3.org/TR/2001/REC-SVG-20010904/DTD/svg10.dtd">
<svg version="1.0" xmlns="http://www.w3.org/2000/svg"
 width="523.000000pt" height="137.000000pt" viewBox="0 0 523.000000 137.000000"
 preserveAspectRatio="xMidYMid meet">
<metadata>
Created by potrace 1.15, written by Peter Selinger 2001-2017
</metadata>
<g transform="translate(0.000000,137.000000) scale(0.100000,-0.100000)"
fill="#000000" stroke="none">
<path d="M2460 1080 l0 -210 -285 0 -285 0 0 -55 0 -56 350 3 c336 3 350 4
364 23 13 17 15 62 16 263 l0 242 -80 0 -80 0 0 -210z"/>
<path d="M2660 1061 c0 -126 4 -241 9 -254 17 -43 51 -47 417 -47 l344 0 0 55
0 55 -305 0 -305 0 0 210 0 210 -80 0 -80 0 0 -229z"/>
<path d="M100 590 l0 -50 150 0 150 0 0 -200 0 -200 80 0 80 0 0 200 0 200
215 0 215 0 0 50 0 50 -445 0 -445 0 0 -50z"/>
<path d="M1030 590 l0 -50 310 0 310 0 0 -45 0 -45 -310 0 -310 0 0 -155 0
-155 70 0 69 0 3 103 3 102 235 0 235 0 3 -102 3 -103 74 0 75 0 0 89 c0 68
-4 93 -16 105 -14 14 -14 18 0 38 12 17 16 48 16 123 0 157 35 145 -405 145
l-365 0 0 -50z"/>
<path d="M1842 593 l3 -48 249 -3 c169 -1 254 -6 263 -14 9 -7 13 -26 11 -47
l-3 -36 -220 -5 -220 -5 -3 -47 -3 -48 223 -2 223 -3 3 -97 3 -98 69 0 70 0 0
228 c0 220 -1 230 -21 248 -20 18 -43 19 -336 22 l-314 3 3 -48z"/>
<path d="M2550 390 l0 -250 80 0 80 0 0 250 0 250 -80 0 -80 0 0 -250z"/>
<path d="M2779 621 c-24 -19 -24 -20 -24 -248 l0 -228 73 -3 72 -3 0 176 c0
96 2 175 5 175 2 0 40 -27 82 -61 377 -293 373 -291 445 -292 44 -1 54 3 75
27 23 27 23 28 21 249 l-3 222 -79 0 -79 0 1 -156 c1 -152 -3 -199 -17 -199
-3 0 -17 10 -31 23 -50 46 -386 314 -407 325 -34 19 -107 15 -134 -7z"/>
<path d="M3562 593 l3 -48 373 -3 372 -2 0 50 0 50 -376 0 -375 0 3 -47z"/>
<path d="M4384 626 c-3 -8 -4 -29 -2 -48 l3 -33 308 -3 307 -2 2 -25 c4 -66
34 -59 -307 -65 l-310 -5 0 -150 0 -150 72 -3 72 -3 3 103 3 103 235 0 235 0
3 -103 3 -103 72 3 72 3 3 69 c2 51 -2 78 -16 107 -17 35 -18 39 -3 54 22 21
23 223 2 248 -12 15 -51 17 -383 17 -307 0 -370 -2 -374 -14z"/>
<path d="M3567 443 c-4 -3 -7 -26 -7 -50 l0 -43 305 0 305 0 0 50 0 50 -298 0
c-164 0 -302 -3 -305 -7z"/>
<path d="M3564 246 c-3 -7 -4 -33 -2 -57 l3 -44 388 -3 388 -2 -3 57 -3 58
-383 3 c-320 2 -383 0 -388 -12z"/>
</g>
</svg>
